<svg xmlns="http://www.w3.org/2000/svg" width="256" height="256" viewBox="0 0 256 256" version="1.1"><path d="M 34.073 10.729 C 32.739 10.980, 30.489 11.925, 29.073 12.830 C 27.658 13.734, 26.044 14.930, 25.487 15.487 C 24.930 16.044, 23.692 17.722, 22.736 19.217 C 21.780 20.711, 20.841 22.736, 20.649 23.717 C 20.457 24.697, 19.991 26.205, 19.613 27.068 C 19.235 27.930, 19.055 33.330, 19.213 39.068 L 19.500 49.500 128 49.500 L 236.500 49.500 236.447 38.500 C 236.418 32.450, 236.088 26.375, 235.713 25 C 235.338 23.625, 234.246 21.038, 233.288 19.250 C 232.329 17.462, 231.268 16, 230.928 16 C 230.589 16, 229.060 14.925, 227.530 13.611 C 226.001 12.296, 223.118 10.951, 221.125 10.622 C 219.131 10.292, 176.775 10.078, 127 10.147 C 77.225 10.216, 35.408 10.478, 34.073 10.729" stroke="none" fill="#5b28e5" fill-rule="evenodd"/><path d="M 121 66.963 C 119.075 67.994, 106.181 80.237, 92.347 94.169 C 70.292 116.381, 67.048 120.049, 66.002 123.960 C 65.128 127.231, 65.096 129.378, 65.884 132.007 C 66.475 133.979, 68.249 137.039, 69.826 138.805 C 71.403 140.572, 74.698 142.700, 77.147 143.535 C 81.147 144.897, 82.055 144.893, 86.051 143.492 C 89.342 142.338, 93.298 139.147, 101.250 131.233 L 112 120.534 112 150.119 C 112 179.258, 112.034 179.755, 114.280 183.087 C 115.533 184.947, 118.346 187.481, 120.530 188.718 C 122.713 189.955, 125.752 190.975, 127.282 190.984 C 128.812 190.993, 131.719 190.309, 133.742 189.463 C 135.765 188.618, 138.338 186.944, 139.460 185.744 C 140.582 184.543, 142.063 182.483, 142.750 181.166 C 143.667 179.410, 144 171.004, 144 149.653 L 144 120.534 154.750 131.246 C 163.159 139.625, 166.540 142.311, 170.278 143.582 C 174.984 145.183, 175.138 145.167, 180.476 142.555 C 183.833 140.913, 186.677 138.640, 187.948 136.584 C 189.366 134.290, 190 131.565, 190 127.767 C 190 123.587, 189.461 121.579, 187.750 119.388 C 186.512 117.802, 174.875 105.848, 161.888 92.822 C 148.901 79.796, 136.751 68.209, 134.888 67.073 C 133.025 65.937, 129.925 65.026, 128 65.048 C 126.075 65.070, 122.925 65.932, 121 66.963" stroke="none" fill="#fbfbfc" fill-rule="evenodd"/><path d="M 19.231 123.579 L 19.500 197.658 22.505 202.579 C 24.702 206.176, 26.855 208.173, 30.505 210 C 35.481 212.491, 35.618 212.501, 66.995 212.733 L 98.490 212.966 100.995 216.383 C 102.373 218.262, 104.175 220.784, 105 221.987 C 105.825 223.190, 109.795 228.747, 113.823 234.337 C 117.850 239.927, 122.125 245.047, 123.323 245.715 C 124.520 246.383, 126.625 246.929, 128 246.929 C 129.375 246.929, 131.480 246.383, 132.677 245.715 C 133.875 245.047, 138.150 239.927, 142.177 234.337 C 146.205 228.747, 150.175 223.190, 151 221.987 C 151.825 220.784, 153.627 218.262, 155.005 216.383 L 157.510 212.966 189.005 212.733 C 220.382 212.501, 220.519 212.491, 225.495 210 C 229.145 208.173, 231.298 206.176, 233.495 202.579 L 236.500 197.658 236.769 123.579 L 237.037 49.500 128 49.500 L 18.963 49.500 19.231 123.579 M 121 66.963 C 119.075 67.994, 106.181 80.237, 92.347 94.169 C 70.292 116.381, 67.048 120.049, 66.002 123.960 C 65.128 127.231, 65.096 129.378, 65.884 132.007 C 66.475 133.979, 68.249 137.039, 69.826 138.805 C 71.403 140.572, 74.698 142.700, 77.147 143.535 C 81.147 144.897, 82.055 144.893, 86.051 143.492 C 89.342 142.338, 93.298 139.147, 101.250 131.233 L 112 120.534 112 150.119 C 112 179.258, 112.034 179.755, 114.280 183.087 C 115.533 184.947, 118.346 187.481, 120.530 188.718 C 122.713 189.955, 125.752 190.975, 127.282 190.984 C 128.812 190.993, 131.719 190.309, 133.742 189.463 C 135.765 188.618, 138.338 186.944, 139.460 185.744 C 140.582 184.543, 142.063 182.483, 142.750 181.166 C 143.667 179.410, 144 171.004, 144 149.653 L 144 120.534 154.750 131.246 C 163.159 139.625, 166.540 142.311, 170.278 143.582 C 174.984 145.183, 175.138 145.167, 180.476 142.555 C 183.833 140.913, 186.677 138.640, 187.948 136.584 C 189.366 134.290, 190 131.565, 190 127.767 C 190 123.587, 189.461 121.579, 187.750 119.388 C 186.512 117.802, 174.875 105.848, 161.888 92.822 C 148.901 79.796, 136.751 68.209, 134.888 67.073 C 133.025 65.937, 129.925 65.026, 128 65.048 C 126.075 65.070, 122.925 65.932, 121 66.963" stroke="none" fill="#6e64f6" fill-rule="evenodd"/></svg>